<?xml version="1.0" encoding="utf-8"?>
<!-- Generator: Adobe Illustrator 22.0.0, SVG Export Plug-In . SVG Version: 6.00 Build 0)  -->
<svg version="1.1" id="图层_1" xmlns="http://www.w3.org/2000/svg" xmlns:xlink="http://www.w3.org/1999/xlink" x="0px" y="0px"
	 viewBox="0 0 6400 3200" style="enable-background:new 0 0 6400 3200;" xml:space="preserve">
<style type="text/css">
	.st0{fill:none;stroke:#FFFFFF;stroke-width:50;stroke-miterlimit:10;}
	.st1{fill:#FFFFFF;}
</style>
<rect x="233.5" y="447.5" class="st0" width="2375" height="2375"/>
<polyline class="st0" points="538,964 1438,627 963,1673 2121,1060 1775,2139 955,1694 2367,2452 "/>
<g>
	<path class="st1" d="M3250.666,741h-118v704h-68V741h-119v-60h305V741z"/>
	<path class="st1" d="M3628.439,1388.359c0,16.672-5.234,30.281-15.703,40.828S3588.611,1445,3571.799,1445H3384.08
		c-16.531,0-30.094-5.266-40.719-15.813s-15.922-24.156-15.922-40.828V1197h68v188h165v-182.5l-211.016-254.25
		c-14.656-17.531-21.984-36.844-21.984-57.953V737.641c0-16.656,5.297-30.266,15.922-40.813S3367.549,681,3384.08,681h187.719
		c16.813,0,30.469,5.281,40.938,15.828s15.703,24.156,15.703,40.813V913h-68V741h-165v161.5l212,254.25
		c14,16.891,21,35.891,21,56.984V1388.359z"/>
	<path class="st1" d="M4046.408,1388.359c0,16.672-5.234,30.281-15.703,40.828S4006.58,1445,3989.768,1445h-187.719
		c-16.531,0-30.094-5.266-40.719-15.813s-15.922-24.156-15.922-40.828V1197h68v188h165v-182.5l-211.016-254.25
		c-14.656-17.531-21.984-36.844-21.984-57.953V737.641c0-16.656,5.297-30.266,15.922-40.813S3785.518,681,3802.049,681h187.719
		c16.813,0,30.469,5.281,40.938,15.828s15.703,24.156,15.703,40.813V913h-68V741h-165v161.5l212,254.25
		c14,16.891,21,35.891,21,56.984V1388.359z"/>
	<path class="st1" d="M3290.666,2285.359c0,16.531-5.313,30.094-15.938,40.719S3250.541,2342,3234.025,2342h-178.359v303h-68v-764
		h246.359c16.516,0,30.078,5.281,40.703,15.828s15.938,24.156,15.938,40.813V2285.359z M3222.666,2281v-340h-167v340H3222.666z"/>
	<path class="st1" d="M3469.822,2645h-68v-764h68V2645z"/>
	<path class="st1" d="M3903.041,2588.359c0,16.672-5.359,30.281-16.047,40.828S3862.775,2645,3846.4,2645h-192.719
		c-16.672,0-30.281-5.266-40.828-15.813s-15.813-24.156-15.813-40.828v-650.719c0-16.656,5.266-30.266,15.813-40.813
		S3637.01,1881,3653.682,1881H3846.4c16.375,0,29.906,5.281,40.594,15.828s16.047,24.156,16.047,40.813V2113h-68v-172h-170v644h170
		v-188h68V2588.359z"/>
	<path class="st1" d="M4284.846,1941h-118v704h-68v-704h-119v-60h305V1941z"/>
	<path class="st1" d="M4681.619,2588.359c0,16.672-5.313,30.281-15.938,40.828S4641.494,2645,4624.979,2645H4421.26
		c-16.672,0-30.281-5.266-40.828-15.813s-15.813-24.156-15.813-40.828V1881h68v704h181v-704h68V2588.359z"/>
	<path class="st1" d="M5128.584,2645h-71l-142-409.328l9.25-13.672h120.75v-281h-174v704h-68v-764h253.359
		c16.656,0,30.266,5.281,40.813,15.828s15.828,24.156,15.828,40.813v285.719c0,37.766-24.719,56.641-74.156,56.641
		c-4.875,0-12.031-0.234-21.469-0.734c-9.438-0.484-16.266-0.734-20.484-0.734C5041.334,2400.375,5085.037,2522.531,5128.584,2645z"
		/>
	<path class="st1" d="M5481.342,2645h-251v-764h248v60h-180v285h164v61h-164v298h183V2645z"/>
	<path class="st1" d="M5885.275,2588.359c0,16.672-5.234,30.281-15.703,40.828S5845.447,2645,5828.635,2645h-187.719
		c-16.531,0-30.094-5.266-40.719-15.813s-15.922-24.156-15.922-40.828V2397h68v188h165v-182.5l-211.016-254.25
		c-14.656-17.531-21.984-36.844-21.984-57.953v-152.656c0-16.656,5.297-30.266,15.922-40.813s24.188-15.828,40.719-15.828h187.719
		c16.813,0,30.469,5.281,40.938,15.828s15.703,24.156,15.703,40.813V2113h-68v-172h-165v161.5l212,254.25
		c14,16.891,21,35.891,21,56.984V2588.359z"/>
</g>
<g>
</g>
<g>
</g>
<g>
</g>
<g>
</g>
<g>
</g>
<g>
</g>
<g>
</g>
<g>
</g>
<g>
</g>
<g>
</g>
<g>
</g>
</svg>
